{
  "streams": [
      {
          "index": 0,
          "codec_name": "hevc",
          "codec_long_name": "H.265 / HEVC (High Efficiency Video Coding)",
          "profile": "Main 10",
          "codec_type": "video",
          "codec_tag_string": "[0][0][0][0]",
          "codec_tag": "0x0000",
          "width": 3840,
          "height": 1920,
          "coded_width": 3840,
          "coded_height": 1920,
          "closed_captions": 0,
          "film_grain": 0,
          "has_b_frames": 2,
          "sample_aspect_ratio": "1:1",
          "display_aspect_ratio": "2:1",
          "pix_fmt": "yuv420p10le",
          "level": 153,
          "color_range": "tv",
          "color_space": "bt2020nc",
          "color_transfer": "smpte2084",
          "color_primaries": "bt2020",
          "chroma_location": "topleft",
          "refs": 1,
          "r_frame_rate": "24000/1001",
          "avg_frame_rate": "24000/1001",
          "time_base": "1/1000",
          "start_pts": 0,
          "start_time": "0.000000",
          "extradata_size": 128,
          "disposition": {
              "default": 1,
              "dub": 0,
              "original": 0,
              "comment": 0,
              "lyrics": 0,
              "karaoke": 0,
              "forced": 0,
              "hearing_impaired": 0,
              "visual_impaired": 0,
              "clean_effects": 0,
              "attached_pic": 0,
              "timed_thumbnails": 0,
              "non_diegetic": 0,
              "captions": 0,
              "descriptions": 0,
              "metadata": 0,
              "dependent": 0,
              "still_image": 0
          },
          "tags": {
              "BPS": "5120052",
              "DURATION": "01:54:03.837000000",
              "NUMBER_OF_FRAMES": "164088",
              "NUMBER_OF_BYTES": "4380100551",
              "_STATISTICS_WRITING_APP": "mkvmerge v80.0 ('Roundabout') 64-bit",
              "_STATISTICS_WRITING_DATE_UTC": "2023-11-01 11:38:39",
              "_STATISTICS_TAGS": "BPS DURATION NUMBER_OF_FRAMES NUMBER_OF_BYTES"
          },
          "side_data_list": [
              {
                  "side_data_type": "DOVI configuration record",
                  "dv_version_major": 1,
                  "dv_version_minor": 0,
                  "dv_profile": 8,
                  "dv_level": 6,
                  "rpu_present_flag": 1,
                  "el_present_flag": 0,
                  "bl_present_flag": 1,
                  "dv_bl_signal_compatibility_id": 1
              }
          ]
      },
      {
          "index": 1,
          "codec_name": "eac3",
          "codec_long_name": "ATSC A/52B (AC-3, E-AC-3)",
          "profile": "Dolby Digital Plus + Dolby Atmos",
          "codec_type": "audio",
          "codec_tag_string": "[0][0][0][0]",
          "codec_tag": "0x0000",
          "sample_fmt": "fltp",
          "sample_rate": "48000",
          "channels": 6,
          "channel_layout": "5.1(side)",
          "bits_per_sample": 0,
          "initial_padding": 0,
          "r_frame_rate": "0/0",
          "avg_frame_rate": "0/0",
          "time_base": "1/1000",
          "start_pts": 0,
          "start_time": "0.000000",
          "bit_rate": "768000",
          "disposition": {
              "default": 1,
              "dub": 0,
              "original": 0,
              "comment": 0,
              "lyrics": 0,
              "karaoke": 0,
              "forced": 0,
              "hearing_impaired": 0,
              "visual_impaired": 0,
              "clean_effects": 0,
              "attached_pic": 0,
              "timed_thumbnails": 0,
              "non_diegetic": 0,
              "captions": 0,
              "descriptions": 0,
              "metadata": 0,
              "dependent": 0,
              "still_image": 0
          },
          "tags": {
              "language": "fre",
              "title": "FR VFF : DDP 5.1 Atmos",
              "BPS": "768000",
              "DURATION": "01:54:02.144000000",
              "NUMBER_OF_FRAMES": "213817",
              "NUMBER_OF_BYTES": "656845824",
              "_STATISTICS_WRITING_APP": "mkvmerge v80.0 ('Roundabout') 64-bit",
              "_STATISTICS_WRITING_DATE_UTC": "2023-11-01 11:38:39",
              "_STATISTICS_TAGS": "BPS DURATION NUMBER_OF_FRAMES NUMBER_OF_BYTES"
          }
      },
      {
          "index": 2,
          "codec_name": "eac3",
          "codec_long_name": "ATSC A/52B (AC-3, E-AC-3)",
          "profile": "Dolby Digital Plus + Dolby Atmos",
          "codec_type": "audio",
          "codec_tag_string": "[0][0][0][0]",
          "codec_tag": "0x0000",
          "sample_fmt": "fltp",
          "sample_rate": "48000",
          "channels": 6,
          "channel_layout": "5.1(side)",
          "bits_per_sample": 0,
          "initial_padding": 0,
          "r_frame_rate": "0/0",
          "avg_frame_rate": "0/0",
          "time_base": "1/1000",
          "start_pts": 0,
          "start_time": "0.000000",
          "bit_rate": "768000",
          "disposition": {
              "default": 0,
              "dub": 0,
              "original": 0,
              "comment": 0,
              "lyrics": 0,
              "karaoke": 0,
              "forced": 0,
              "hearing_impaired": 0,
              "visual_impaired": 0,
              "clean_effects": 0,
              "attached_pic": 0,
              "timed_thumbnails": 0,
              "non_diegetic": 0,
              "captions": 0,
              "descriptions": 0,
              "metadata": 0,
              "dependent": 0,
              "still_image": 0
          },
          "tags": {
              "language": "eng",
              "title": "ENG VO : DDP 5.1 Atmos",
              "BPS": "768000",
              "DURATION": "01:54:02.176000000",
              "NUMBER_OF_FRAMES": "213818",
              "NUMBER_OF_BYTES": "656848896",
              "_STATISTICS_WRITING_APP": "mkvmerge v80.0 ('Roundabout') 64-bit",
              "_STATISTICS_WRITING_DATE_UTC": "2023-11-01 11:38:39",
              "_STATISTICS_TAGS": "BPS DURATION NUMBER_OF_FRAMES NUMBER_OF_BYTES"
          }
      },
      {
          "index": 3,
          "codec_name": "subrip",
          "codec_long_name": "SubRip subtitle",
          "codec_type": "subtitle",
          "codec_tag_string": "[0][0][0][0]",
          "codec_tag": "0x0000",
          "r_frame_rate": "0/0",
          "avg_frame_rate": "0/0",
          "time_base": "1/1000",
          "start_pts": 0,
          "start_time": "0.000000",
          "duration_ts": 6843837,
          "duration": "6843.837000",
          "disposition": {
              "default": 1,
              "dub": 0,
              "original": 0,
              "comment": 0,
              "lyrics": 0,
              "karaoke": 0,
              "forced": 1,
              "hearing_impaired": 0,
              "visual_impaired": 0,
              "clean_effects": 0,
              "attached_pic": 0,
              "timed_thumbnails": 0,
              "non_diegetic": 0,
              "captions": 0,
              "descriptions": 0,
              "metadata": 0,
              "dependent": 0,
              "still_image": 0
          },
          "tags": {
              "language": "fre",
              "title": "FR Forced : SRT",
              "BPS": "6",
              "DURATION": "01:38:09.717000000",
              "NUMBER_OF_FRAMES": "146",
              "NUMBER_OF_BYTES": "4601",
              "_STATISTICS_WRITING_APP": "mkvmerge v80.0 ('Roundabout') 64-bit",
              "_STATISTICS_WRITING_DATE_UTC": "2023-11-01 11:38:39",
              "_STATISTICS_TAGS": "BPS DURATION NUMBER_OF_FRAMES NUMBER_OF_BYTES"
          }
      },
      {
          "index": 4,
          "codec_name": "subrip",
          "codec_long_name": "SubRip subtitle",
          "codec_type": "subtitle",
          "codec_tag_string": "[0][0][0][0]",
          "codec_tag": "0x0000",
          "r_frame_rate": "0/0",
          "avg_frame_rate": "0/0",
          "time_base": "1/1000",
          "start_pts": 0,
          "start_time": "0.000000",
          "duration_ts": 6843837,
          "duration": "6843.837000",
          "disposition": {
              "default": 0,
              "dub": 0,
              "original": 0,
              "comment": 0,
              "lyrics": 0,
              "karaoke": 0,
              "forced": 0,
              "hearing_impaired": 0,
              "visual_impaired": 0,
              "clean_effects": 0,
              "attached_pic": 0,
              "timed_thumbnails": 0,
              "non_diegetic": 0,
              "captions": 0,
              "descriptions": 0,
              "metadata": 0,
              "dependent": 0,
              "still_image": 0
          },
          "tags": {
              "language": "fre",
              "title": "FR Full : SRT",
              "BPS": "60",
              "DURATION": "01:52:27.741000000",
              "NUMBER_OF_FRAMES": "1791",
              "NUMBER_OF_BYTES": "51121",
              "_STATISTICS_WRITING_APP": "mkvmerge v80.0 ('Roundabout') 64-bit",
              "_STATISTICS_WRITING_DATE_UTC": "2023-11-01 11:38:39",
              "_STATISTICS_TAGS": "BPS DURATION NUMBER_OF_FRAMES NUMBER_OF_BYTES"
          }
      },
      {
          "index": 5,
          "codec_name": "subrip",
          "codec_long_name": "SubRip subtitle",
          "codec_type": "subtitle",
          "codec_tag_string": "[0][0][0][0]",
          "codec_tag": "0x0000",
          "r_frame_rate": "0/0",
          "avg_frame_rate": "0/0",
          "time_base": "1/1000",
          "start_pts": 0,
          "start_time": "0.000000",
          "duration_ts": 6843837,
          "duration": "6843.837000",
          "disposition": {
              "default": 0,
              "dub": 0,
              "original": 0,
              "comment": 0,
              "lyrics": 0,
              "karaoke": 0,
              "forced": 0,
              "hearing_impaired": 0,
              "visual_impaired": 0,
              "clean_effects": 0,
              "attached_pic": 0,
              "timed_thumbnails": 0,
              "non_diegetic": 0,
              "captions": 0,
              "descriptions": 0,
              "metadata": 0,
              "dependent": 0,
              "still_image": 0
          },
          "tags": {
              "language": "eng",
              "title": "ENG Full : SRT",
              "BPS": "92",
              "DURATION": "01:51:46.106000000",
              "NUMBER_OF_FRAMES": "2265",
              "NUMBER_OF_BYTES": "77799",
              "_STATISTICS_WRITING_APP": "mkvmerge v80.0 ('Roundabout') 64-bit",
              "_STATISTICS_WRITING_DATE_UTC": "2023-11-01 11:38:39",
              "_STATISTICS_TAGS": "BPS DURATION NUMBER_OF_FRAMES NUMBER_OF_BYTES"
          }
      },
      {
          "index": 6,
          "codec_name": "hdmv_pgs_subtitle",
          "codec_long_name": "HDMV Presentation Graphic Stream subtitles",
          "codec_type": "subtitle",
          "codec_tag_string": "[0][0][0][0]",
          "codec_tag": "0x0000",
          "r_frame_rate": "0/0",
          "avg_frame_rate": "0/0",
          "time_base": "1/1000",
          "start_pts": 0,
          "start_time": "0.000000",
          "duration_ts": 6843837,
          "duration": "6843.837000",
          "disposition": {
              "default": 0,
              "dub": 0,
              "original": 0,
              "comment": 0,
              "lyrics": 0,
              "karaoke": 0,
              "forced": 1,
              "hearing_impaired": 0,
              "visual_impaired": 0,
              "clean_effects": 0,
              "attached_pic": 0,
              "timed_thumbnails": 0,
              "non_diegetic": 0,
              "captions": 0,
              "descriptions": 0,
              "metadata": 0,
              "dependent": 0,
              "still_image": 0
          },
          "tags": {
              "language": "fre",
              "title": "FR Forced : PGS",
              "BPS": "3059",
              "DURATION": "01:38:09.717000000",
              "NUMBER_OF_FRAMES": "292",
              "NUMBER_OF_BYTES": "2252310",
              "_STATISTICS_WRITING_APP": "mkvmerge v80.0 ('Roundabout') 64-bit",
              "_STATISTICS_WRITING_DATE_UTC": "2023-11-01 11:38:39",
              "_STATISTICS_TAGS": "BPS DURATION NUMBER_OF_FRAMES NUMBER_OF_BYTES"
          }
      },
      {
          "index": 7,
          "codec_name": "hdmv_pgs_subtitle",
          "codec_long_name": "HDMV Presentation Graphic Stream subtitles",
          "codec_type": "subtitle",
          "codec_tag_string": "[0][0][0][0]",
          "codec_tag": "0x0000",
          "r_frame_rate": "0/0",
          "avg_frame_rate": "0/0",
          "time_base": "1/1000",
          "start_pts": 0,
          "start_time": "0.000000",
          "duration_ts": 6843837,
          "duration": "6843.837000",
          "disposition": {
              "default": 0,
              "dub": 0,
              "original": 0,
              "comment": 0,
              "lyrics": 0,
              "karaoke": 0,
              "forced": 0,
              "hearing_impaired": 0,
              "visual_impaired": 0,
              "clean_effects": 0,
              "attached_pic": 0,
              "timed_thumbnails": 0,
              "non_diegetic": 0,
              "captions": 0,
              "descriptions": 0,
              "metadata": 0,
              "dependent": 0,
              "still_image": 0
          },
          "tags": {
              "language": "fre",
              "title": "FR Full : PGS",
              "BPS": "34290",
              "DURATION": "01:52:27.741000000",
              "NUMBER_OF_FRAMES": "3582",
              "NUMBER_OF_BYTES": "28923118",
              "_STATISTICS_WRITING_APP": "mkvmerge v80.0 ('Roundabout') 64-bit",
              "_STATISTICS_WRITING_DATE_UTC": "2023-11-01 11:38:39",
              "_STATISTICS_TAGS": "BPS DURATION NUMBER_OF_FRAMES NUMBER_OF_BYTES"
          }
      },
      {
          "index": 8,
          "codec_name": "hdmv_pgs_subtitle",
          "codec_long_name": "HDMV Presentation Graphic Stream subtitles",
          "codec_type": "subtitle",
          "codec_tag_string": "[0][0][0][0]",
          "codec_tag": "0x0000",
          "r_frame_rate": "0/0",
          "avg_frame_rate": "0/0",
          "time_base": "1/1000",
          "start_pts": 0,
          "start_time": "0.000000",
          "duration_ts": 6843837,
          "duration": "6843.837000",
          "disposition": {
              "default": 0,
              "dub": 0,
              "original": 0,
              "comment": 0,
              "lyrics": 0,
              "karaoke": 0,
              "forced": 0,
              "hearing_impaired": 1,
              "visual_impaired": 0,
              "clean_effects": 0,
              "attached_pic": 0,
              "timed_thumbnails": 0,
              "non_diegetic": 0,
              "captions": 0,
              "descriptions": 0,
              "metadata": 0,
              "dependent": 0,
              "still_image": 0
          },
          "tags": {
              "language": "eng",
              "title": "ENG Full SDH : PGS",
              "BPS": "50685",
              "DURATION": "01:48:20.619000000",
              "NUMBER_OF_FRAMES": "4527",
              "NUMBER_OF_BYTES": "41185762",
              "_STATISTICS_WRITING_APP": "mkvmerge v80.0 ('Roundabout') 64-bit",
              "_STATISTICS_WRITING_DATE_UTC": "2023-11-01 11:38:39",
              "_STATISTICS_TAGS": "BPS DURATION NUMBER_OF_FRAMES NUMBER_OF_BYTES"
          }
      }
  ],
  "format": {
      "filename": "Barbie (2023) Bluray-2160p.mkv",
      "nb_streams": 9,
      "nb_programs": 0,
      "format_name": "matroska,webm",
      "format_long_name": "Matroska / WebM",
      "start_time": "0.000000",
      "duration": "6843.837000",
      "size": "5724479446",
      "bit_rate": "6691543",
      "probe_score": 100,
      "tags": {
          "title": "Barbie (2023) Hybrid MULTi VFF 2160p 10bit 4KLight DV HDR BluRay DDP 5.1 Atmos x265-QTZ",
          "encoder": "libebml v1.4.4 + libmatroska v1.7.1",
          "creation_time": "2023-11-01T11:38:39.000000Z"
      }
  }
}